<?xml version="1.0" encoding="utf-8"?>
<!-- Generator: Adobe Illustrator 28.0.0, SVG Export Plug-In . SVG Version: 6.00 Build 0)  -->
<svg version="1.1" id="Capa_1" xmlns="http://www.w3.org/2000/svg" xmlns:xlink="http://www.w3.org/1999/xlink" x="0px" y="0px"
	 viewBox="0 0 500 500" style="enable-background:new 0 0 500 500;" xml:space="preserve">
<style type="text/css">
	.st0{fill:#FFFFFF;}
	.st1{fill:#00FF00;}
</style>
<rect y="1" width="500" height="500"/>
<path class="st0" d="M81.8,329.3c-0.4,0.1-0.8,0.2-1.1,0.5c-0.9,0.7-2.4,2.1-2.7,4.4c-0.2,1.5,0.2,3,1,4.3c0.9,1.4,2.5,2.1,4.2,2.1
	l66.3,0c2.5,0,4.9-1.6,5.5-4.1c0.1-0.2,0.1-0.5,0.1-0.8c0.3-2.4-0.8-4.8-2.9-6.2c-0.2-0.1-0.5-0.3-0.7-0.3
	c-6.4-2.1-12.7-4.2-19.1-6.4c-2.8-0.9-4.6-3.6-4.5-6.5c0.6-14.3,1.1-26.2,1.4-35.3c1.3-34.9,1.5-45.6,1.6-53c0.1-7,0.1-13.4,0.1-19
	c0-2.9,4-3.8,5.2-1.1c19,43.5,38.1,86.9,57.1,130.4c0.2,0.4,0.4,0.7,0.8,1c0.6,0.4,1.5,1,2.7,1.2c2.7,0.4,4.6-1.4,4.8-1.6
	c8-2.2,43.3-100.4,56.4-131.9c1.1-2.7,5.1-2,5.2,0.9c1.7,36.7,2.3,73.4,4.1,110.1c0.1,2.1-0.8,4.2-2.4,5.5c-1.7,1.4-4.1,2.9-7.1,4
	c-2.8,1-5.3,1.4-7.3,1.6c-0.6,0-1.1,0.2-1.6,0.6c-0.9,0.7-2.2,2.1-2.4,4.3c-0.3,2.2,0.6,4.3,2.3,5.8c0.5,0.4,1.1,0.7,1.8,0.7l69.5,0
	c1.2,0,2.4-0.7,2.8-1.9c1.2-3.2,1.2-6.6,0.7-7.8c-2.8-6.6-20.1-2.9-20.9-8c-0.2-1.1-5.5-129.8-6.3-150c-0.1-1.3,0.3-2.5,1.1-3.6
	c1-1.4,2.5-3.1,3.6-3.9c5.3-3.6,10.9-3.4,12.9-3.2c0,0,0,0,0,0c2.3-1.4,3.5-3.9,3.2-6.4c-0.4-3-2.9-4.6-3.2-4.8c0,0,0,0,0,0l-56,0
	c-1.1,0-2.2,0.7-2.5,1.8l-45.9,122.9c-1.2,3.2-5.6,3.2-6.9,0.1c-17.3-41-34.6-82.1-51.9-123.1c-0.4-1-1.4-1.7-2.5-1.7l-56.7,0
	c-0.7,0-1.4,0.3-1.9,0.7c-0.8,0.8-1.9,2.1-2.3,4.1c-0.3,1.2-0.2,2.4,0.1,3.3c0.5,1.8,2.1,3.1,3.9,3.4c2.3,0.3,4.7,0.7,7.2,1.3
	c3.4,0.8,6.6,1.7,9.4,2.6c1.1,0.4,1.8,1.4,1.8,2.5c0,15.2-0.2,61.4-1.6,91.3c-0.1,2.5-0.7,14.7-1.6,30.5
	c-0.6,10.1-1.1,18.6-1.5,25.1c-0.1,1.7-0.7,3.3-1.8,4.5c-1.8,2.1-3.5,3.4-4.8,4.1c-2.4,1.5-4.9,2.1-9.6,3.2
	C86.3,328.6,83.7,329,81.8,329.3z"/>
<circle class="st1" cx="373.8" cy="303.7" r="40.2"/>
</svg>
